<?xml version="1.0" encoding="UTF-8" standalone="no"?>
<svg
   width="616"
   height="118"
   version="1.1"
   id="svg157"
   sodipodi:docname="logo-dark.svg"
   inkscape:version="1.1.1 (3bf5ae0d25, 2021-09-20)"
   xmlns:inkscape="http://www.inkscape.org/namespaces/inkscape"
   xmlns:sodipodi="http://sodipodi.sourceforge.net/DTD/sodipodi-0.dtd"
   xmlns:xlink="http://www.w3.org/1999/xlink"
   xmlns="http://www.w3.org/2000/svg"
   xmlns:svg="http://www.w3.org/2000/svg"
   xmlns:lucid="lucid">
  <defs
     id="defs161">
    <rect
       x="212.62759"
       y="170.24574"
       width="755.69"
       height="156.59735"
       id="rect49851" />
  </defs>
  <sodipodi:namedview
     id="namedview159"
     pagecolor="#ffffff"
     bordercolor="#666666"
     borderopacity="1.0"
     inkscape:pageshadow="2"
     inkscape:pageopacity="0.0"
     inkscape:pagecheckerboard="0"
     showgrid="false"
     inkscape:zoom="1.9687341"
     inkscape:cx="492.70238"
     inkscape:cy="137.39793"
     inkscape:window-width="3440"
     inkscape:window-height="1369"
     inkscape:window-x="1072"
     inkscape:window-y="916"
     inkscape:window-maximized="1"
     inkscape:current-layer="g155" />
  <g
     lucid:page-tab-id="0_0"
     id="g155">
    <path
       d="m 60,6 c 0,-3.3 2.7,-6 6,-6 h 808 c 3.3,0 6,2.7 6,6 v 248 c 0,3.3 -2.7,6 -6,6 H 66 c -3.3,0 -6,-2.7 -6,-6 z"
       stroke="#000000"
       stroke-opacity="0"
       stroke-width="3"
       fill="#ffffff"
       fill-opacity="0"
       id="path4" />
    <path
       d="m 472.42812,27.143455 c 5.34179,0 9.66839,5.438472 9.66839,12.085493 0,6.695353 -4.3266,12.085483 -9.66839,12.085483 h -29.00519 c -5.34178,0 -9.66839,-5.39013 -9.66839,-12.085483 0,-6.647021 4.32661,-12.085493 9.66839,-12.085493 z"
       stroke="#090909"
       stroke-width="2.4171"
       fill="#090909"
       id="path24"
       style="fill:#ffffff;fill-opacity:1;stroke:#ffffff;stroke-opacity:1" />
    <path
       d="m 544.94107,2.972468 c 5.34179,0 9.6684,5.438473 9.6684,12.085494 0,6.695363 -4.32661,12.085493 -9.6684,12.085493 h -29.00518 c -5.34179,0 -9.66839,-5.39013 -9.66839,-12.085493 0,-6.647021 4.3266,-12.085494 9.66839,-12.085494 z"
       stroke="#090909"
       stroke-width="2.4171"
       fill="#ef8d22"
       id="path26"
       style="fill:#22efda;fill-opacity:1;stroke:#ffffff;stroke-width:4.717;stroke-miterlimit:4;stroke-dasharray:none;stroke-opacity:1" />
    <path
       d="m 485.14205,39.228948 h 1.78866 c 3.98821,0 7.25129,-3.226827 7.25129,-7.251296 v -9.668394 c 0,-3.988213 3.23891,-7.251296 7.2513,-7.251296 h 1.81282"
       stroke="#090909"
       stroke-width="3.62565"
       fill="none"
       id="path28"
       style="stroke:#ffffff;stroke-width:4.717;stroke-miterlimit:4;stroke-dasharray:none;stroke-opacity:1" />
    <path
       d="m 485.16623,41.041772 h -2.09079 l 0.24171,-1.812824 -0.24171,-1.812824 h 2.0787 z m 19.88063,-25.98381 0.24171,1.812824 h -2.10287 v -3.625648 h 2.09079 z"
       fill="#090909"
       id="path30"
       style="fill:#ffffff;fill-opacity:1;stroke:#ffffff;stroke-width:0.617;stroke-miterlimit:4;stroke-dasharray:none;stroke-opacity:1" />
    <path
       d="m 593.28305,51.314431 c 5.34177,0 9.66837,5.43847 9.66837,12.08549 0,6.69536 -4.3266,12.08549 -9.66837,12.08549 h -29.00519 c -5.34178,0 -9.66839,-5.39013 -9.66839,-12.08549 0,-6.64702 4.32661,-12.08549 9.66839,-12.08549 z"
       stroke="#090909"
       stroke-width="2.4171"
       fill="#ef8d22"
       id="path32"
       style="stroke:#ffffff;stroke-width:4.717;stroke-miterlimit:4;stroke-dasharray:none;stroke-opacity:1" />
    <path
       d="m 485.14205,39.228948 h 38.04514 c 3.98821,0 7.25129,3.263083 7.25129,7.251293 v 9.66838 c 0,4.02447 3.23891,7.2513 7.2513,7.2513 h 13.89832"
       stroke="#090909"
       stroke-width="3.62565"
       fill="none"
       id="path34"
       style="stroke:#ffffff;stroke-width:4.717;stroke-miterlimit:4;stroke-dasharray:none;stroke-opacity:1" />
    <path
       d="m 485.16623,41.041772 h -2.09079 l 0.24171,-1.812824 -0.24171,-1.812824 h 2.0787 z m 68.2226,22.358149 0.24171,1.81282 h -2.10287 v -3.62565 h 2.09079 z"
       fill="#090909"
       id="path36"
       style="fill:#ffffff;fill-opacity:1;stroke:#ffffff;stroke-width:1.20855;stroke-opacity:1" />
    <defs
       id="defs153">
      <radialGradient
         gradientUnits="userSpaceOnUse"
         id="a"
         fx="280"
         fy="260"
         cx="280"
         cy="260"
         r="760"
         gradientTransform="translate(346.16068,447.61061)">
        <stop
           offset="27.17%"
           stop-color="#eaedf1"
           id="stop38" />
        <stop
           offset="100%"
           stop-color="#95a0b2"
           id="stop40" />
      </radialGradient>
      <path
         fill="#333333"
         d="m 31,-719 c 23,-3 56,-3 79,0 l 201,651 198,-651 c 23,-3 54,-3 77,0 L 350,0 c -25,3 -59,3 -83,0"
         id="h" />
      <path
         fill="#333333"
         d="M 185,0 C 165,3 139,3 119,0 V -454 H 55 c -3,-16 -3,-40 0,-56 h 130 z m -15,-635 c -25,3 -58,2 -84,0 -2,-26 -3,-59 0,-84 26,-2 59,-3 84,0 3,26 2,58 0,84"
         id="i" />
      <path
         fill="#333333"
         d="M 397,-146 C 397,14 195,38 55,-10 c 4,-20 10,-40 19,-60 98,49 314,17 244,-114 -50,-95 -243,-47 -248,-201 -5,-143 189,-161 314,-115 -3,19 -8,38 -14,57 -79,-35 -278,-39 -224,89 42,57 146,54 200,100 28,24 51,55 51,108"
         id="j" />
      <path
         fill="#333333"
         d="m 128,-255 c 0,119 45,209 159,209 114,0 159,-90 159,-209 0,-119 -45,-209 -159,-209 -114,0 -159,90 -159,209 z m 387,0 C 515,-98 444,12 287,12 130,12 59,-97 59,-255 c 0,-158 71,-267 228,-267 157,0 228,110 228,267"
         id="k" />
      <path
         fill="#333333"
         d="M 154,0 C 134,3 108,3 88,0 v -510 c 19,-3 41,-3 60,0 3,22 4,67 4,92 34,-56 85,-103 174,-104 121,-1 167,78 168,200 V 0 c -20,3 -46,3 -66,0 v -302 c -1,-98 -21,-159 -106,-159 -116,0 -168,88 -168,209 V 0"
         id="l" />
      <g
         id="b">
        <use
           transform="scale(0.1)"
           xlink:href="#h"
           id="use48"
           x="0"
           y="0"
           width="100%"
           height="100%" />
        <use
           transform="matrix(0.1,0,0,0.1,61.7,0)"
           xlink:href="#i"
           id="use50"
           x="0"
           y="0"
           width="100%"
           height="100%" />
        <use
           transform="matrix(0.1,0,0,0.1,89,0)"
           xlink:href="#j"
           id="use52"
           x="0"
           y="0"
           width="100%"
           height="100%" />
        <use
           transform="matrix(0.1,0,0,0.1,134.2,0)"
           xlink:href="#i"
           id="use54"
           x="0"
           y="0"
           width="100%"
           height="100%" />
        <use
           transform="matrix(0.1,0,0,0.1,161.5,0)"
           xlink:href="#k"
           id="use56"
           x="0"
           y="0"
           width="100%"
           height="100%" />
        <use
           transform="matrix(0.1,0,0,0.1,218.9,0)"
           xlink:href="#l"
           id="use58"
           x="0"
           y="0"
           width="100%"
           height="100%" />
      </g>
      <path
         fill="#333333"
         d="M 282,0 C 262,3 233,3 213,0 V -657 H 20 c -3,-18 -3,-43 0,-62 h 455 c 3,18 3,43 0,62 H 282 V 0"
         id="m" />
      <path
         fill="#333333"
         d="M 268,0 C 178,25 88,0 88,-103 v -632 c 20,-3 46,-3 66,0 v 617 c -8,67 46,81 104,66 6,14 8,34 10,52"
         id="n" />
      <path
         fill="#333333"
         d="M 154,0 C 134,3 108,3 88,0 v -735 c 20,-3 46,-3 66,0 z m 42,-263 183,-247 c 23,-4 53,-4 77,0 L 274,-270 489,0 c -26,4 -53,4 -79,0"
         id="o" />
      <path
         fill="#333333"
         d="M 323,0 C 219,30 111,2 111,-119 V -454 H 24 c -3,-16 -3,-40 0,-56 h 87 v -96 l 62,-61 h 4 v 157 h 138 c 3,16 3,40 0,56 H 177 v 332 c -10,78 75,86 136,66 5,17 8,36 10,56"
         id="p" />
      <g
         id="c">
        <use
           transform="scale(0.1)"
           xlink:href="#m"
           id="use65"
           x="0"
           y="0"
           width="100%"
           height="100%" />
        <use
           transform="matrix(0.1,0,0,0.1,49.5,0)"
           xlink:href="#k"
           id="use67"
           x="0"
           y="0"
           width="100%"
           height="100%" />
        <use
           transform="matrix(0.1,0,0,0.1,106.9,0)"
           xlink:href="#k"
           id="use69"
           x="0"
           y="0"
           width="100%"
           height="100%" />
        <use
           transform="matrix(0.1,0,0,0.1,164.3,0)"
           xlink:href="#n"
           id="use71"
           x="0"
           y="0"
           width="100%"
           height="100%" />
        <use
           transform="matrix(0.1,0,0,0.1,192.2,0)"
           xlink:href="#o"
           id="use73"
           x="0"
           y="0"
           width="100%"
           height="100%" />
        <use
           transform="matrix(0.1,0,0,0.1,242.4,0)"
           xlink:href="#i"
           id="use75"
           x="0"
           y="0"
           width="100%"
           height="100%" />
        <use
           transform="matrix(0.1,0,0,0.1,269.7,0)"
           xlink:href="#p"
           id="use77"
           x="0"
           y="0"
           width="100%"
           height="100%" />
      </g>
      <path
         fill="#090909"
         d="m 85,-1421 h 1120 v 150 H 730 V 0 H 560 V -1271 H 85 v -150"
         id="q" />
      <path
         fill="#090909"
         d="m 590,20 c -303,0 -460,-177 -460,-491 0,-284 120,-462 341,-519 147,-38 285,-13 415,43 l -40,120 c -74,-25 -146,-38 -217,-38 -227,3 -340,127 -340,359 0,249 115,388 358,391 63,0 125,-11 188,-33 l 40,113 C 780,2 685,20 590,20"
         id="r" />
      <path
         fill="#090909"
         d="m 352,-243 v -123 h 198 v 355 c 0,0 -143,23 -232,23 -216,0 -278,-127 -278,-359 0,-248 72,-355 273,-355 105,0 237,29 237,29 l -4,119 c 0,0 -120,-13 -211,-13 -118,0 -153,41 -153,220 0,173 25,225 149,225 41,0 83,-4 83,-4 v -117 h -62"
         id="s" />
      <path
         fill="#090909"
         d="m 67,0 v -499 h 134 v 47 c 0,0 60,-44 139,-59 v 144 c -88,17 -139,43 -139,43 V 0 H 67"
         id="t" />
      <path
         fill="#090909"
         d="m 456,-339 v 185 c 0,37 4,47 32,52 L 484,12 C 397,12 374,-1 342,-22 342,-22 258,12 189,12 90,12 40,-52 40,-152 c 0,-155 138,-154 282,-161 5,-43 -11,-69 -50,-70 -74,0 -194,8 -194,8 l -4,-114 c 0,0 133,-22 206,-22 112,0 176,44 176,172 z m -134,128 c -59,8 -147,-14 -147,55 0,35 13,53 41,53 41,0 106,-15 106,-15 v -93"
         id="u" />
      <path
         fill="#090909"
         d="m 67,210 v -709 h 134 v 23 c 0,0 64,-35 113,-35 132,0 197,65 197,257 C 511,-3 393,29 201,4 v 206 z m 221,-598 c -34,0 -87,19 -87,19 v 255 c 0,0 45,5 73,5 80,0 101,-39 101,-145 0,-101 -34,-134 -87,-134"
         id="v" />
      <path
         fill="#090909"
         d="M 201,0 H 67 v -700 h 134 v 215 c 0,0 77,-26 124,-26 140,0 176,88 176,249 V 0 H 367 v -262 c 0,-75 -10,-124 -70,-124 -33,0 -96,12 -96,12 V 0"
         id="w" />
      <g
         id="d">
        <use
           transform="scale(0.02712674)"
           xlink:href="#q"
           id="use87"
           x="0"
           y="0"
           width="100%"
           height="100%" />
        <use
           transform="matrix(0.02712674,0,0,0.02712674,32.823351,0)"
           xlink:href="#r"
           id="use89"
           x="0"
           y="0"
           width="100%"
           height="100%" />
        <use
           transform="matrix(0.05777778,0,0,0.05777778,59.977214,0)"
           xlink:href="#s"
           id="use91"
           x="0"
           y="0"
           width="100%"
           height="100%" />
        <use
           transform="matrix(0.05777778,0,0,0.05777778,94.354991,0)"
           xlink:href="#t"
           id="use93"
           x="0"
           y="0"
           width="100%"
           height="100%" />
        <use
           transform="matrix(0.05777778,0,0,0.05777778,115.15499,0)"
           xlink:href="#u"
           id="use95"
           x="0"
           y="0"
           width="100%"
           height="100%" />
        <use
           transform="matrix(0.05777778,0,0,0.05777778,145.66166,0)"
           xlink:href="#v"
           id="use97"
           x="0"
           y="0"
           width="100%"
           height="100%" />
        <use
           transform="matrix(0.05777778,0,0,0.05777778,177.20832,0)"
           xlink:href="#w"
           id="use99"
           x="0"
           y="0"
           width="100%"
           height="100%" />
      </g>
      <path
         fill="#090909"
         d="m 63,-220 v 92 h 138 v 28 H 63 V 0 H 30 v -248 h 175 v 28 H 63"
         id="x" />
      <path
         fill="#090909"
         d="M 114,-163 C 36,-179 61,-72 57,0 H 25 l -1,-190 h 30 c 1,12 -1,29 2,39 6,-27 23,-49 58,-41 v 29"
         id="y" />
      <path
         fill="#090909"
         d="M 141,-36 C 126,-15 110,5 73,4 37,3 15,-17 15,-53 c -1,-64 63,-63 125,-63 3,-35 -9,-54 -41,-54 -24,1 -41,7 -42,31 l -33,-3 c 5,-37 33,-52 76,-52 45,0 72,20 72,64 v 82 c -1,20 7,32 28,27 V -1 C 169,8 139,-3 141,-36 Z M 48,-53 c 0,20 12,33 32,33 41,-3 63,-29 60,-74 -43,2 -92,-5 -92,41"
         id="z" />
      <path
         fill="#090909"
         d="m 210,-169 c -67,3 -38,105 -44,169 h -31 v -121 c 0,-29 -5,-50 -35,-48 C 34,-165 62,-65 56,0 H 25 l -1,-190 h 30 c 1,10 -1,24 2,32 10,-44 99,-50 107,0 11,-21 27,-35 58,-36 85,-2 47,119 55,194 h -31 v -121 c 0,-29 -5,-49 -35,-48"
         id="A" />
      <path
         fill="#090909"
         d="m 100,-194 c 63,0 86,42 84,106 H 49 c 0,40 14,67 53,68 26,1 43,-12 49,-29 l 28,8 C 168,-13 142,4 102,4 44,4 14,-33 15,-96 c 1,-61 26,-98 85,-98 z m 52,81 c 6,-60 -76,-77 -97,-28 -3,7 -6,17 -6,28 h 103"
         id="B" />
      <path
         fill="#090909"
         d="M 206,0 H 170 L 130,-164 89,0 H 53 L -1,-190 h 32 l 39,164 43,-164 h 34 l 41,164 42,-164 h 31"
         id="C" />
      <path
         fill="#090909"
         d="m 100,-194 c 62,-1 85,37 85,99 1,63 -27,99 -86,99 -59,0 -83,-39 -84,-99 0,-66 28,-99 85,-99 z m -1,174 c 44,1 53,-31 53,-75 0,-43 -8,-75 -51,-75 -43,0 -53,32 -53,75 0,43 10,74 51,75"
         id="D" />
      <path
         fill="#090909"
         d="M 143,0 79,-87 56,-68 V 0 H 24 v -261 h 32 v 163 l 83,-92 h 37 l -77,82 82,108 h -38"
         id="E" />
      <g
         id="e">
        <use
           transform="scale(0.0617284)"
           xlink:href="#x"
           id="use110"
           x="0"
           y="0"
           width="100%"
           height="100%" />
        <use
           transform="matrix(0.0617284,0,0,0.0617284,13.518519,0)"
           xlink:href="#y"
           id="use112"
           x="0"
           y="0"
           width="100%"
           height="100%" />
        <use
           transform="matrix(0.0617284,0,0,0.0617284,20.864198,0)"
           xlink:href="#z"
           id="use114"
           x="0"
           y="0"
           width="100%"
           height="100%" />
        <use
           transform="matrix(0.0617284,0,0,0.0617284,33.209877,0)"
           xlink:href="#A"
           id="use116"
           x="0"
           y="0"
           width="100%"
           height="100%" />
        <use
           transform="matrix(0.0617284,0,0,0.0617284,51.666667,0)"
           xlink:href="#B"
           id="use118"
           x="0"
           y="0"
           width="100%"
           height="100%" />
        <use
           transform="matrix(0.0617284,0,0,0.0617284,64.012346,0)"
           xlink:href="#C"
           id="use120"
           x="0"
           y="0"
           width="100%"
           height="100%" />
        <use
           transform="matrix(0.0617284,0,0,0.0617284,80,0)"
           xlink:href="#D"
           id="use122"
           x="0"
           y="0"
           width="100%"
           height="100%" />
        <use
           transform="matrix(0.0617284,0,0,0.0617284,92.345679,0)"
           xlink:href="#y"
           id="use124"
           x="0"
           y="0"
           width="100%"
           height="100%" />
        <use
           transform="matrix(0.0617284,0,0,0.0617284,99.691358,0)"
           xlink:href="#E"
           id="use126"
           x="0"
           y="0"
           width="100%"
           height="100%" />
      </g>
      <path
         fill="#090909"
         d="m 30,-248 c 87,1 191,-15 191,75 0,78 -77,80 -158,76 V 0 H 30 Z m 33,125 c 57,0 124,11 124,-50 0,-59 -68,-47 -124,-48 v 98"
         id="F" />
      <path
         fill="#090909"
         d="m 85,-194 c 31,0 48,13 60,33 l -1,-100 h 32 l 1,261 h -30 c -2,-10 0,-23 -3,-31 C 134,-8 116,4 85,4 32,4 16,-35 15,-94 c 0,-66 23,-100 70,-100 z m 9,24 c -40,0 -46,34 -46,75 0,40 6,74 45,74 42,0 51,-32 51,-76 0,-42 -9,-74 -50,-73"
         id="G" />
      <g
         id="f">
        <use
           transform="scale(0.0308642)"
           xlink:href="#F"
           id="use131"
           x="0"
           y="0"
           width="100%"
           height="100%" />
        <use
           transform="matrix(0.0308642,0,0,0.0308642,7.4074074,0)"
           xlink:href="#D"
           id="use133"
           x="0"
           y="0"
           width="100%"
           height="100%" />
        <use
           transform="matrix(0.0308642,0,0,0.0308642,13.580247,0)"
           xlink:href="#C"
           id="use135"
           x="0"
           y="0"
           width="100%"
           height="100%" />
        <use
           transform="matrix(0.0308642,0,0,0.0308642,21.574074,0)"
           xlink:href="#B"
           id="use137"
           x="0"
           y="0"
           width="100%"
           height="100%" />
        <use
           transform="matrix(0.0308642,0,0,0.0308642,27.746914,0)"
           xlink:href="#y"
           id="use139"
           x="0"
           y="0"
           width="100%"
           height="100%" />
        <use
           transform="matrix(0.0308642,0,0,0.0308642,31.419753,0)"
           xlink:href="#B"
           id="use141"
           x="0"
           y="0"
           width="100%"
           height="100%" />
        <use
           transform="matrix(0.0308642,0,0,0.0308642,37.592593,0)"
           xlink:href="#G"
           id="use143"
           x="0"
           y="0"
           width="100%"
           height="100%" />
      </g>
      <path
         fill="#090909"
         d="m 115,-194 c 53,0 69,39 70,98 C 185,-30 162,4 115,4 84,3 66,-7 56,-30 L 54,0 H 23 l 1,-261 h 32 v 101 c 10,-23 28,-34 59,-34 z m -8,174 c 40,0 45,-34 45,-75 0,-40 -5,-75 -45,-74 -42,0 -51,32 -51,76 0,43 10,73 51,73"
         id="H" />
      <path
         fill="#090909"
         d="M 179,-190 93,31 C 79,59 56,82 12,73 V 49 C 51,55 65,29 76,-1 L 1,-190 h 34 l 57,156 54,-156 h 33"
         id="I" />
      <g
         id="g">
        <use
           transform="scale(0.0308642)"
           xlink:href="#H"
           id="use148"
           x="0"
           y="0"
           width="100%"
           height="100%" />
        <use
           transform="matrix(0.0308642,0,0,0.0308642,6.1728395,0)"
           xlink:href="#I"
           id="use150"
           x="0"
           y="0"
           width="100%"
           height="100%" />
      </g>
    </defs>
    <g
       aria-label="VisionToolkit"
       transform="translate(-201.13416,-150.13236)"
       id="text49849"
       style="font-size:40px;white-space:pre;fill:#ffffff;stroke:#333333">
      <g
         id="path61009"
         style="fill:#ffffff">
        <path
           style="color:#000000;-inkscape-font-specification:'Futura Lt BT, Normal';stroke:none;-inkscape-stroke:none;fill:#ffffff"
           d="M 238.64258,257.85547 211.7832,186.55859 h 7.17188 l 19.78125,55.875 20.8125,-55.875 h 6.84375 z"
           id="path61038" />
        <path
           style="color:#000000;-inkscape-font-specification:'Futura Lt BT, Normal';stroke:none;-inkscape-stroke:none;fill:#ffffff"
           d="m 211.06055,186.05859 27.57422,73.19532 0.4746,-1.2168 28.01368,-71.97852 h -7.92188 l -20.45312,54.91211 -19.43946,-54.91211 z m 1.44531,1 h 6.0957 l 20.12305,56.83985 21.17187,-56.83985 h 5.76368 l -27.00977,69.39649 z"
           id="path61040" />
      </g>
      <g
         id="path61011"
         style="fill:#ffffff">
        <path
           style="color:#000000;-inkscape-font-specification:'Futura Lt BT, Normal';stroke:none;-inkscape-stroke:none;fill:#ffffff"
           d="m 272.11133,197.38672 q 0,-1.82813 1.3125,-3.09375 1.3125,-1.3125 3.14062,-1.3125 1.82813,0 3.14063,1.3125 1.35937,1.26562 1.35937,3.09375 0,1.875 -1.3125,3.14062 -1.26562,1.26563 -3.1875,1.26563 -1.875,0 -3.1875,-1.26563 -1.26562,-1.26562 -1.26562,-3.14062 z m 1.45312,57.79687 v -41.57812 h 5.95313 v 41.57812 z"
           id="path61044" />
        <path
           style="color:#000000;-inkscape-font-specification:'Futura Lt BT, Normal';stroke:none;-inkscape-stroke:none;fill:#ffffff"
           d="m 276.56445,192.48047 c -1.33691,0 -2.53369,0.50204 -3.49023,1.45703 -0.95947,0.92679 -1.46289,2.11232 -1.46289,3.44922 0,1.3625 0.48106,2.5631 1.41211,3.49414 l 0.004,0.004 0.002,0.002 c 0.96063,0.92633 2.17265,1.40625 3.53515,1.40625 1.38944,0 2.6043,-0.47901 3.53711,-1.41016 0.96169,-0.92896 1.46289,-2.13096 1.46289,-3.49609 0,-1.3408 -0.52422,-2.53007 -1.51562,-3.45508 -0.95555,-0.95107 -2.15027,-1.45117 -3.48438,-1.45117 z m 0,1 c 1.0991,0 1.99419,0.37309 2.78711,1.16601 l 0.006,0.006 0.008,0.006 c 0.81838,0.76193 1.19922,1.6337 1.19922,2.72852 0,1.13333 -0.37397,2.02314 -1.16015,2.78125 l -0.002,0.002 -0.004,0.004 c -0.75427,0.75427 -1.66249,1.11914 -2.83399,1.11914 -1.1359,0 -2.04733,-0.36406 -2.83593,-1.12305 -0.75424,-0.75575 -1.11719,-1.64734 -1.11719,-2.7832 0,-1.0991 0.37175,-1.97413 1.16015,-2.73438 l 0.002,-0.002 0.004,-0.004 c 0.79293,-0.79292 1.68803,-1.16601 2.78711,-1.16601 z m -3.5,19.625 v 42.57812 h 0.5 6.45313 v -42.57812 z m 1,1 h 4.95313 v 40.57812 h -4.95313 z"
           id="path61046" />
      </g>
      <g
         id="path61013"
         style="fill:#ffffff">
        <path
           style="color:#000000;-inkscape-font-specification:'Futura Lt BT, Normal';stroke:none;-inkscape-stroke:none;fill:#ffffff"
           d="m 290.5332,247.77734 5.48438,-3.14062 q 1.35937,3.46875 3.9375,5.25 2.57812,1.73437 6.32812,1.73437 3.65625,0 5.8125,-1.82812 2.15625,-1.875 2.15625,-4.96875 0,-4.78125 -8.48437,-8.10938 -0.89063,-0.32812 -1.40625,-0.5625 -6.5625,-2.57812 -9.1875,-5.29687 -2.625,-2.76563 -2.625,-6.79688 0,-5.29687 3.75,-8.67187 3.75,-3.42188 9.70312,-3.42188 5.0625,0 8.625,2.20313 3.5625,2.20312 5.20313,6.28125 l -5.29688,2.95312 q -0.98437,-2.95312 -3.28125,-4.5 -2.29687,-1.54687 -5.625,-1.54687 -3,0 -4.96875,1.78125 -1.92187,1.73437 -1.92187,4.35937 0,2.57813 1.92187,4.26563 1.92188,1.6875 7.96875,3.70312 6.84375,2.39063 9.1875,5.20313 2.39063,2.8125 2.39063,7.78125 0,5.71875 -4.07813,9.14062 -4.07812,3.42188 -10.96875,3.42188 -5.29687,0 -9.14062,-2.39063 -3.79688,-2.4375 -5.48438,-6.84375 z"
           id="path61050" />
        <path
           style="color:#000000;-inkscape-font-specification:'Futura Lt BT, Normal';stroke:none;-inkscape-stroke:none;fill:#ffffff"
           d="m 306.00195,211.46484 c -4.06286,0 -7.44022,1.18269 -10.03711,3.55078 -2.59667,2.33701 -3.91601,5.39374 -3.91601,9.04297 0,2.79603 0.92821,5.2089 2.76172,7.14063 l 0.002,0.002 0.002,0.002 c 1.83602,1.90159 4.94453,3.67532 9.33985,5.4043 0.004,0.002 0.0131,0.006 0.0176,0.008 0.002,8.6e-4 0.004,0.001 0.006,0.002 0.36023,0.16289 0.82718,0.34875 1.41797,0.5664 2.78472,1.09339 4.84811,2.30193 6.18946,3.58399 1.34309,1.28373 1.96679,2.61077 1.96679,4.05664 0,1.9442 -0.64868,3.4278 -1.98047,4.58789 -4.2e-4,3.6e-4 -0.002,-3.6e-4 -0.002,0 -1.33104,1.12789 -3.13292,1.70898 -5.48633,1.70898 -2.42042,0 -4.41828,-0.55513 -6.04297,-1.64648 -1.62768,-1.12458 -2.88013,-2.77994 -3.75781,-5.01953 l -0.21094,-0.54102 -6.35742,3.64258 0.15235,0.40039 c 1.15878,3.0257 3.06346,5.40319 5.68164,7.08399 l 0.002,0.002 0.004,0.002 c 2.64996,1.64815 5.79783,2.4668 9.40429,2.4668 4.67652,0 8.46605,-1.16868 11.29102,-3.53906 2.82382,-2.36941 4.25586,-5.59209 4.25586,-9.52344 0,-3.39196 -0.82265,-6.11792 -2.50977,-8.10352 -1.6717,-2.00416 -4.8031,-3.74624 -9.40429,-5.35351 h -0.002 l -0.004,-0.002 c -4.00661,-1.33553 -6.63683,-2.58493 -7.79688,-3.60351 -1.18638,-1.0417 -1.75195,-2.29612 -1.75195,-3.89063 0,-1.62797 0.56971,-2.91609 1.75781,-3.98828 1.21881,-1.10273 2.73177,-1.65234 4.63281,-1.65234 2.14129,0 3.90727,0.49219 5.34571,1.46094 1.43642,0.96739 2.4583,2.36123 3.08593,4.24414 l 0.19141,0.57226 6.20898,-3.46094 -0.16406,-0.41015 c -1.12888,-2.80609 -2.94112,-4.99626 -5.4043,-6.51953 -2.4651,-1.52448 -5.44114,-2.27735 -8.88867,-2.27735 z m 0,1 c 3.30247,0 6.07644,0.71588 8.36133,2.12891 2.1622,1.33714 3.71664,3.24129 4.7793,5.66406 l -4.40235,2.45508 c -0.70242,-1.77652 -1.74051,-3.23564 -3.20898,-4.22461 -1.62405,-1.09375 -3.60808,-1.63281 -5.9043,-1.63281 -2.09895,0 -3.89849,0.63789 -5.30468,1.91015 -1.37439,1.24031 -2.08594,2.85845 -2.08594,4.73047 0,1.843 0.71568,3.43233 2.09179,4.64063 1.40246,1.23142 4.08475,2.45078 8.14063,3.80273 4.51785,1.57884 7.50779,3.30505 8.96094,5.04883 l 0.002,0.002 0.002,0.002 c 1.49965,1.76429 2.27149,4.22472 2.27149,7.45703 0,3.69364 -1.28671,6.56473 -3.90039,8.75781 -2.61252,2.19212 -6.1355,3.30469 -10.64649,3.30469 -3.45502,0 -6.40041,-0.77404 -8.875,-2.3125 -7.1e-4,-4.5e-4 -0.001,-0.002 -0.002,-0.002 -2.32186,-1.49224 -3.97383,-3.58437 -5.07227,-6.23047 l 4.61914,-2.64649 c 0.92482,2.11663 2.17558,3.82731 3.8418,4.97852 l 0.004,0.002 h 0.002 c 1.8119,1.21892 4.03034,1.82031 6.60742,1.82031 2.52083,0 4.59289,-0.63837 6.13672,-1.94726 l 0.002,-0.002 0.002,-0.002 c 1.54025,-1.33935 2.32812,-3.16704 2.32812,-5.3457 0,-1.74163 -0.79036,-3.35991 -2.27539,-4.7793 -1.48502,-1.41939 -3.66133,-2.67068 -6.52734,-3.79492 l -0.004,-0.002 -0.006,-0.002 c -0.58688,-0.21621 -1.04606,-0.40108 -1.37109,-0.54882 l -0.0117,-0.006 -0.0117,-0.004 c -4.33772,-1.7041 -7.34692,-3.45729 -9.00781,-5.17578 l -0.002,-0.002 c -5.2e-4,-5.4e-4 -0.001,-0.001 -0.002,-0.002 -1.66387,-1.75496 -2.48437,-3.87225 -2.48437,-6.44922 0,-3.41325 1.18066,-6.13779 3.58398,-8.30078 h 0.002 l 0.002,-0.002 c 2.40268,-2.19245 5.49229,-3.29102 9.36523,-3.29102 z"
           id="path61052" />
      </g>
      <g
         id="path61015"
         style="fill:#ffffff">
        <path
           style="color:#000000;-inkscape-font-specification:'Futura Lt BT, Normal';stroke:none;-inkscape-stroke:none;fill:#ffffff"
           d="m 330.8457,197.38672 q 0,-1.82813 1.3125,-3.09375 1.3125,-1.3125 3.14063,-1.3125 1.82812,0 3.14062,1.3125 1.35938,1.26562 1.35938,3.09375 0,1.875 -1.3125,3.14062 -1.26563,1.26563 -3.1875,1.26563 -1.875,0 -3.1875,-1.26563 -1.26563,-1.26562 -1.26563,-3.14062 z m 1.45313,57.79687 v -41.57812 h 5.95312 v 41.57812 z"
           id="path61056" />
        <path
           style="color:#000000;-inkscape-font-specification:'Futura Lt BT, Normal';stroke:none;-inkscape-stroke:none;fill:#ffffff"
           d="m 335.29883,192.48047 c -1.33692,0 -2.53369,0.50204 -3.49024,1.45703 -0.95947,0.92679 -1.46289,2.11232 -1.46289,3.44922 0,1.3625 0.48106,2.5631 1.41211,3.49414 l 0.004,0.004 0.002,0.002 c 0.96064,0.92633 2.17266,1.40625 3.53516,1.40625 1.38943,0 2.60429,-0.47901 3.53711,-1.41016 0.96169,-0.92896 1.46289,-2.13096 1.46289,-3.49609 0,-1.3408 -0.52422,-2.53008 -1.51563,-3.45508 -0.95554,-0.95107 -2.15027,-1.45117 -3.48437,-1.45117 z m 0,1 c 1.09909,0 1.99418,0.37309 2.78711,1.16601 l 0.006,0.006 0.008,0.006 c 0.81838,0.76194 1.19922,1.6337 1.19922,2.72852 0,1.13333 -0.37397,2.02314 -1.16016,2.78125 l -0.002,0.002 -0.004,0.004 c -0.75427,0.75427 -1.66249,1.11914 -2.83398,1.11914 -1.1359,0 -2.04734,-0.36406 -2.83594,-1.12305 -0.75424,-0.75575 -1.11719,-1.64734 -1.11719,-2.7832 0,-1.0991 0.37175,-1.97413 1.16016,-2.73438 l 0.002,-0.002 0.004,-0.004 c 0.79292,-0.79292 1.68801,-1.16601 2.78711,-1.16601 z m -3.5,19.625 v 42.57812 h 0.5 6.45312 v -42.57812 z m 1,1 h 4.95312 v 40.57812 h -4.95312 z"
           id="path61058" />
      </g>
      <g
         id="path61017"
         style="fill:#ffffff">
        <path
           style="color:#000000;-inkscape-font-specification:'Futura Lt BT, Normal';stroke:none;-inkscape-stroke:none;fill:#ffffff"
           d="m 373.08008,251.62109 q 6.84375,0 11.57812,-4.92187 4.78125,-4.96875 4.78125,-12.14063 0,-7.26562 -4.73437,-12.1875 -4.73438,-4.92187 -11.625,-4.92187 -6.84375,0 -11.57813,4.92187 -4.73437,4.92188 -4.73437,12.1875 0,7.17188 4.73437,12.14063 4.73438,4.92187 11.57813,4.92187 z m -0.1875,5.39063 q -4.45313,0 -8.53125,-1.78125 -4.07813,-1.73438 -7.40625,-5.01563 -3.14063,-3.09375 -4.78125,-7.125 -1.64063,-4.03125 -1.64063,-8.625 0,-4.54687 1.6875,-8.625 1.6875,-4.07812 4.82813,-7.21875 3.1875,-3.1875 7.26562,-4.875 4.07813,-1.6875 8.57813,-1.6875 4.59375,0 8.71875,1.6875 4.17187,1.6875 7.40625,4.875 3.23437,3.1875 4.92187,7.26563 1.73438,4.07812 1.73438,8.57812 0,4.5 -1.6875,8.57813 -1.6875,4.03125 -4.875,7.17187 -3.28125,3.28125 -7.5,5.01563 -4.17188,1.78125 -8.71875,1.78125 z"
           id="path61062" />
        <path
           style="color:#000000;-inkscape-font-specification:'Futura Lt BT, Normal';stroke:none;-inkscape-stroke:none;fill:#ffffff"
           d="m 372.89258,211.55859 c -3.0625,0 -5.99075,0.57477 -8.76953,1.72461 -2.77899,1.14993 -5.25855,2.81519 -7.42774,4.98438 -2.1386,2.1386 -3.78794,4.60275 -4.9375,7.38086 -1.1501,2.77941 -1.72461,5.7233 -1.72461,8.8164 0,3.12202 0.55899,6.06359 1.67774,8.8125 1.1189,2.74931 2.75249,5.18483 4.89258,7.29297 2.26008,2.22826 4.78432,3.93957 7.5625,5.1211 2.77871,1.21305 5.6926,1.82031 8.72656,1.82031 3.0959,0 6.073,-0.6095 8.91406,-1.82227 h 0.002 c 2.86873,-1.18061 5.42477,-2.8901 7.6543,-5.11914 l 0.002,-0.002 c 2.16879,-2.13738 3.83234,-4.5846 4.98243,-7.33203 v -0.002 h 0.002 c 1.14984,-2.77878 1.72461,-5.70703 1.72461,-8.76953 0,-3.06276 -0.59045,-5.99102 -1.77149,-8.76953 l -0.002,-0.004 c -1.15051,-2.77886 -2.83111,-5.25753 -5.03125,-7.42579 -2.20096,-2.16906 -4.72796,-3.83325 -7.56836,-4.98242 h -0.002 c -2.80969,-1.14915 -5.78318,-1.72461 -8.90625,-1.72461 z m 0,1 c 3.00127,0 5.8395,0.55002 8.52929,1.65039 h 0.002 c 2.72143,1.10081 5.13106,2.68706 7.24219,4.76758 2.11127,2.08069 3.7111,4.44457 4.81054,7.10156 l 0.002,0.002 v 0.002 c 1.13033,2.65779 1.69531,5.44705 1.69531,8.38281 0,2.9375 -0.55024,5.72801 -1.65039,8.38672 -1.09952,2.62572 -2.68409,4.95882 -4.76367,7.00781 l -0.002,0.002 c -2.14288,2.14288 -4.58383,3.77483 -7.33594,4.90625 l -0.004,0.002 -0.004,0.002 c -2.72092,1.16174 -5.55553,1.74024 -8.52148,1.74024 -2.90209,0 -5.67446,-0.57946 -8.33203,-1.74024 h -0.002 l -0.002,-0.002 c -2.65933,-1.13098 -5.0726,-2.76342 -7.25,-4.91016 -2.04741,-2.01685 -3.60133,-4.3333 -4.66992,-6.95898 -1.06876,-2.62608 -1.60352,-5.43257 -1.60352,-8.43555 0,-2.96938 0.5505,-5.7755 1.65039,-8.43359 1.10044,-2.65938 2.66986,-5.00774 4.71875,-7.05664 2.08081,-2.0808 4.44502,-3.66556 7.10352,-4.76563 2.65871,-1.10015 5.44922,-1.65039 8.38672,-1.65039 z m 0.1875,4.39063 c -4.68236,0 -8.69976,1.70818 -11.93946,5.07617 -3.24145,3.36984 -4.87304,7.58086 -4.87304,12.5332 0,4.89127 1.63392,9.08685 4.87304,12.48633 3.2397,3.368 7.2571,5.07617 11.93946,5.07617 4.68236,0 8.69781,-1.70817 11.9375,-5.07617 3.27011,-3.3989 4.92187,-7.59451 4.92187,-12.48633 0,-4.95234 -1.63158,-9.16336 -4.87304,-12.5332 -3.24027,-3.36859 -7.27354,-5.07617 -11.98633,-5.07617 z m 0,1 c 4.47469,0 8.19339,1.57368 11.26562,4.76758 3.07103,3.19266 4.59375,7.10665 4.59375,11.84179 0,4.67014 -1.53647,8.56708 -4.64062,11.79297 v 0.002 h -0.002 c -3.07279,3.19449 -6.77416,4.76757 -11.21679,4.76757 -4.44212,0 -8.1442,-1.57383 -11.2168,-4.76757 -3.07336,-3.22552 -4.5957,-7.1237 -4.5957,-11.79493 0,-4.73514 1.52272,-8.64913 4.59375,-11.84179 3.0728,-3.1945 6.77612,-4.76758 11.21875,-4.76758 z"
           id="path61064" />
      </g>
      <g
         id="path61019"
         style="fill:#ffffff">
        <path
           style="color:#000000;-inkscape-font-specification:'Futura Lt BT, Normal';stroke:none;-inkscape-stroke:none;fill:#ffffff"
           d="m 407.58008,255.18359 v -41.57812 h 5.48437 v 6.42187 q 2.53125,-3.98437 6.1875,-5.95312 3.70313,-2.01563 8.48438,-2.01563 7.07812,0 11.01562,3.9375 3.9375,3.9375 3.9375,10.96875 v 28.21875 h -5.85937 v -25.64062 q 0,-6.23438 -2.625,-9.23438 -2.57813,-3.04687 -8.01563,-3.04687 -6.60937,0 -9.75,3.9375 -3.09375,3.89062 -3.09375,12.28125 v 21.70312 z"
           id="path61068" />
        <path
           style="color:#000000;-inkscape-font-specification:'Futura Lt BT, Normal';stroke:none;-inkscape-stroke:none;fill:#ffffff"
           d="m 427.73633,211.55859 c -3.25776,0 -6.17454,0.68923 -8.72266,2.07618 -2.11653,1.13994 -3.89153,2.88051 -5.44922,4.98437 v -5.51367 h -6.48437 v 42.57812 h 0.5 6.26562 v -22.20312 c 0,-5.53137 1.0315,-9.51196 2.98438,-11.96875 1.98713,-2.49133 5.05242,-3.75 9.35937,-3.75 3.53161,0 6.02798,0.97021 7.63477,2.86914 l 0.002,0.004 0.002,0.004 c 1.63697,1.87082 2.50196,4.81822 2.50196,8.9043 v 26.14062 h 6.85937 v -28.71875 c 0,-4.78082 -1.35376,-8.59204 -4.08398,-11.32226 -2.73092,-2.73092 -6.55768,-4.08399 -11.36914,-4.08399 z m 0,1 c 4.62602,0 8.14304,1.27195 10.66211,3.79102 2.51977,2.51977 3.79101,6.02107 3.79101,10.61523 v 27.71875 h -4.85937 v -25.14062 c 0,-4.22221 -0.88492,-7.42744 -2.74414,-9.55664 -1.83072,-2.16357 -4.6781,-3.22461 -8.39649,-3.22461 -4.50553,0 -7.94025,1.36633 -10.14062,4.125 v 0.002 c -2.17148,2.7308 -3.20313,6.9366 -3.20313,12.5918 v 21.20312 h -4.76562 v -40.57812 h 4.48437 v 7.64062 l 0.92188,-1.45117 c 1.64905,-2.59573 3.64602,-4.51267 6.00195,-5.78125 h 0.002 c 2.38939,-1.30055 5.12886,-1.95508 8.2461,-1.95508 z"
           id="path61070" />
      </g>
      <g
         id="path61021"
         style="fill:#ffffff">
        <path
           style="color:#000000;-inkscape-font-specification:'Futura Lt BT, Normal';stroke:none;-inkscape-stroke:none;fill:#ffffff"
           d="m 470.62695,255.18359 v -62.76562 h -18.89062 v -5.85938 h 44.0625 v 5.85938 h -18.9375 v 62.76562 z"
           id="path61074" />
        <path
           style="color:#000000;-inkscape-font-specification:'Futura Lt BT, Normal';stroke:none;-inkscape-stroke:none;fill:#ffffff"
           d="m 451.23633,186.05859 v 6.85938 h 18.89062 v 62.76562 h 0.5 6.73438 v -62.76562 h 18.9375 v -6.85938 z m 1,1 h 43.0625 v 4.85938 h -18.9375 v 62.76562 h -5.23438 v -62.76562 h -18.89062 z"
           id="path61076" />
      </g>
      <g
         id="path61023"
         style="fill:#ffffff">
        <path
           style="color:#000000;-inkscape-font-specification:'Futura Lt BT, Normal';stroke:none;-inkscape-stroke:none;fill:#ffffff"
           d="m 513.00195,251.62109 q 6.84375,0 11.57813,-4.92187 4.78125,-4.96875 4.78125,-12.14063 0,-7.26562 -4.73438,-12.1875 -4.73437,-4.92187 -11.625,-4.92187 -6.84375,0 -11.57812,4.92187 -4.73438,4.92188 -4.73438,12.1875 0,7.17188 4.73438,12.14063 4.73437,4.92187 11.57812,4.92187 z m -0.1875,5.39063 q -4.45312,0 -8.53125,-1.78125 -4.07812,-1.73438 -7.40625,-5.01563 -3.14062,-3.09375 -4.78125,-7.125 -1.64062,-4.03125 -1.64062,-8.625 0,-4.54687 1.6875,-8.625 1.6875,-4.07812 4.82812,-7.21875 3.1875,-3.1875 7.26563,-4.875 4.07812,-1.6875 8.57812,-1.6875 4.59375,0 8.71875,1.6875 4.17188,1.6875 7.40625,4.875 3.23438,3.1875 4.92188,7.26563 1.73437,4.07812 1.73437,8.57812 0,4.5 -1.6875,8.57813 -1.6875,4.03125 -4.875,7.17187 -3.28125,3.28125 -7.5,5.01563 -4.17187,1.78125 -8.71875,1.78125 z"
           id="path61080" />
        <path
           style="color:#000000;-inkscape-font-specification:'Futura Lt BT, Normal';stroke:none;-inkscape-stroke:none;fill:#ffffff"
           d="m 512.81445,211.55859 c -3.06249,0 -5.99075,0.57477 -8.76953,1.72461 -2.77899,1.14993 -5.25854,2.81519 -7.42773,4.98438 -2.1386,2.1386 -3.78794,4.60275 -4.9375,7.38086 -1.1501,2.77941 -1.72461,5.7233 -1.72461,8.8164 0,3.12202 0.55899,6.06359 1.67773,8.8125 1.11891,2.74931 2.7525,5.18483 4.89258,7.29297 2.2601,2.22826 4.78433,3.93957 7.5625,5.1211 2.77872,1.21305 5.69261,1.82031 8.72656,1.82031 3.09591,0 6.07302,-0.6095 8.91407,-1.82227 h 0.002 c 2.86873,-1.18061 5.42476,-2.8901 7.6543,-5.11914 l 0.002,-0.002 c 2.16878,-2.13738 3.83233,-4.5846 4.98242,-7.33203 v -0.002 h 0.002 c 1.14985,-2.77878 1.72461,-5.70703 1.72461,-8.76953 0,-3.06276 -0.59045,-5.99103 -1.77148,-8.76953 l -0.002,-0.004 c -1.15051,-2.77886 -2.83111,-5.25753 -5.03125,-7.42579 -2.20096,-2.16906 -4.72796,-3.83325 -7.56836,-4.98242 h -0.002 c -2.80968,-1.14915 -5.78317,-1.72461 -8.90625,-1.72461 z m 0,1 c 3.00128,0 5.8395,0.55002 8.5293,1.65039 h 0.002 c 2.72144,1.10081 5.13108,2.68706 7.24219,4.76758 2.11129,2.08069 3.7111,4.44457 4.81055,7.10156 l 0.002,0.002 v 0.002 c 1.13032,2.65779 1.69531,5.44705 1.69531,8.38281 0,2.9375 -0.55023,5.72801 -1.65039,8.38672 -1.09952,2.62572 -2.68409,4.95882 -4.76367,7.00781 l -0.002,0.002 c -2.14289,2.14288 -4.58384,3.77483 -7.33594,4.90625 l -0.004,0.002 -0.004,0.002 c -2.72092,1.16174 -5.55553,1.74024 -8.52149,1.74024 -2.90207,0 -5.67445,-0.57946 -8.33203,-1.74024 h -0.002 l -0.002,-0.002 c -2.65932,-1.13098 -5.0726,-2.76342 -7.25,-4.91016 -2.04741,-2.01685 -3.60133,-4.33329 -4.66993,-6.95898 -1.06875,-2.62608 -1.60351,-5.43257 -1.60351,-8.43555 0,-2.96938 0.55049,-5.7755 1.65039,-8.43359 1.10043,-2.65938 2.66986,-5.00774 4.71875,-7.05664 2.0808,-2.0808 4.44501,-3.66556 7.10351,-4.76563 2.65871,-1.10015 5.44923,-1.65039 8.38672,-1.65039 z m 0.1875,4.39063 c -4.68236,0 -8.69781,1.70818 -11.9375,5.07617 -3.24146,3.36984 -4.875,7.58086 -4.875,12.5332 0,4.89127 1.63392,9.08685 4.87305,12.48633 h 0.002 c 3.23969,3.368 7.25514,5.07617 11.9375,5.07617 4.68141,0 8.69815,-1.70758 11.9375,-5.07422 3.27084,-3.3991 4.92188,-7.59592 4.92188,-12.48828 0,-4.95234 -1.63354,-9.16336 -4.875,-12.5332 -3.24026,-3.36859 -7.27158,-5.07617 -11.98438,-5.07617 z m 0,1 c 4.4747,0 8.19145,1.57368 11.26367,4.76758 3.07104,3.19266 4.59571,7.10665 4.59571,11.84179 0,4.67014 -1.53647,8.56708 -4.64063,11.79297 v 0.002 c -3.0728,3.19449 -6.77611,4.76757 -11.21875,4.76757 -4.44263,0 -8.144,-1.57308 -11.21679,-4.76757 -3.07338,-3.22552 -4.59571,-7.1237 -4.59571,-11.79493 0,-4.73514 1.52467,-8.64913 4.59571,-11.84179 3.07279,-3.19449 6.77416,-4.76758 11.21679,-4.76758 z"
           id="path61082" />
      </g>
      <g
         id="path61025"
         style="fill:#ffffff">
        <path
           style="color:#000000;-inkscape-font-specification:'Futura Lt BT, Normal';stroke:none;-inkscape-stroke:none;fill:#ffffff"
           d="m 566.58008,251.62109 q 6.84375,0 11.57812,-4.92187 4.78125,-4.96875 4.78125,-12.14063 0,-7.26562 -4.73437,-12.1875 -4.73438,-4.92187 -11.625,-4.92187 -6.84375,0 -11.57813,4.92187 -4.73437,4.92188 -4.73437,12.1875 0,7.17188 4.73437,12.14063 4.73438,4.92187 11.57813,4.92187 z m -0.1875,5.39063 q -4.45313,0 -8.53125,-1.78125 -4.07813,-1.73438 -7.40625,-5.01563 -3.14063,-3.09375 -4.78125,-7.125 -1.64063,-4.03125 -1.64063,-8.625 0,-4.54687 1.6875,-8.625 1.6875,-4.07812 4.82813,-7.21875 3.1875,-3.1875 7.26562,-4.875 4.07813,-1.6875 8.57813,-1.6875 4.59375,0 8.71875,1.6875 4.17187,1.6875 7.40625,4.875 3.23437,3.1875 4.92187,7.26563 1.73438,4.07812 1.73438,8.57812 0,4.5 -1.6875,8.57813 -1.6875,4.03125 -4.875,7.17187 -3.28125,3.28125 -7.5,5.01563 -4.17188,1.78125 -8.71875,1.78125 z"
           id="path61086" />
        <path
           style="color:#000000;-inkscape-font-specification:'Futura Lt BT, Normal';stroke:none;-inkscape-stroke:none;fill:#ffffff"
           d="m 566.39258,211.55859 c -3.0625,0 -5.99075,0.57477 -8.76953,1.72461 -2.77899,1.14993 -5.25855,2.81519 -7.42774,4.98438 -2.1386,2.1386 -3.78794,4.60275 -4.9375,7.38086 -1.1501,2.77941 -1.72461,5.7233 -1.72461,8.8164 0,3.12202 0.55899,6.06359 1.67774,8.8125 1.1189,2.74931 2.75249,5.18483 4.89258,7.29297 2.26008,2.22826 4.78432,3.93957 7.5625,5.1211 2.77871,1.21305 5.6926,1.82031 8.72656,1.82031 3.0959,0 6.073,-0.6095 8.91406,-1.82227 h 0.002 c 2.86873,-1.18061 5.42477,-2.8901 7.6543,-5.11914 l 0.002,-0.002 c 2.16879,-2.13738 3.83234,-4.5846 4.98243,-7.33203 v -0.002 h 0.002 c 1.14984,-2.77878 1.72461,-5.70703 1.72461,-8.76953 0,-3.06276 -0.59045,-5.99102 -1.77149,-8.76953 l -0.002,-0.004 c -1.15051,-2.77886 -2.83111,-5.25753 -5.03125,-7.42579 -2.20096,-2.16906 -4.72796,-3.83325 -7.56836,-4.98242 h -0.002 c -2.80969,-1.14915 -5.78318,-1.72461 -8.90625,-1.72461 z m 0,1 c 3.00127,0 5.8395,0.55002 8.52929,1.65039 h 0.002 c 2.72143,1.10081 5.13106,2.68706 7.24219,4.76758 2.11127,2.08069 3.7111,4.44457 4.81054,7.10156 l 0.002,0.002 v 0.002 c 1.13033,2.65779 1.69531,5.44705 1.69531,8.38281 0,2.9375 -0.55024,5.72801 -1.65039,8.38672 -1.09952,2.62572 -2.68409,4.95882 -4.76367,7.00781 l -0.002,0.002 c -2.14288,2.14288 -4.58383,3.77483 -7.33594,4.90625 l -0.004,0.002 -0.004,0.002 c -2.72092,1.16174 -5.55553,1.74024 -8.52148,1.74024 -2.90209,0 -5.67446,-0.57946 -8.33203,-1.74024 h -0.002 l -0.002,-0.002 c -2.65933,-1.13098 -5.0726,-2.76342 -7.25,-4.91016 -2.04741,-2.01685 -3.60133,-4.3333 -4.66992,-6.95898 -1.06876,-2.62608 -1.60352,-5.43257 -1.60352,-8.43555 0,-2.96938 0.5505,-5.7755 1.65039,-8.43359 1.10044,-2.65938 2.66986,-5.00774 4.71875,-7.05664 2.08081,-2.0808 4.44502,-3.66556 7.10352,-4.76563 2.65871,-1.10015 5.44922,-1.65039 8.38672,-1.65039 z m 0.1875,4.39063 c -4.68236,0 -8.69976,1.70818 -11.93946,5.07617 -3.24145,3.36984 -4.87304,7.58086 -4.87304,12.5332 0,4.89127 1.63392,9.08685 4.87304,12.48633 3.2397,3.368 7.2571,5.07617 11.93946,5.07617 4.68236,0 8.69781,-1.70817 11.9375,-5.07617 3.27011,-3.3989 4.92187,-7.59451 4.92187,-12.48633 0,-4.95234 -1.63158,-9.16336 -4.87304,-12.5332 -3.24027,-3.36859 -7.27354,-5.07617 -11.98633,-5.07617 z m 0,1 c 4.47469,0 8.19339,1.57368 11.26562,4.76758 3.07103,3.19266 4.59375,7.10665 4.59375,11.84179 0,4.67014 -1.53647,8.56708 -4.64062,11.79297 v 0.002 h -0.002 c -3.07279,3.19449 -6.77416,4.76757 -11.21679,4.76757 -4.44212,0 -8.1442,-1.57383 -11.2168,-4.76757 -3.07336,-3.22552 -4.5957,-7.1237 -4.5957,-11.79493 0,-4.73514 1.52272,-8.64913 4.59375,-11.84179 3.0728,-3.1945 6.77612,-4.76758 11.21875,-4.76758 z"
           id="path61088" />
      </g>
      <g
         id="path61027"
         style="fill:#ffffff">
        <path
           style="color:#000000;-inkscape-font-specification:'Futura Lt BT, Normal';stroke:none;-inkscape-stroke:none;fill:#ffffff"
           d="m 607.4082,255.18359 h -5.95312 v -72.65625 h 5.95312 z"
           id="path61092" />
        <path
           style="color:#000000;-inkscape-font-specification:'Futura Lt BT, Normal';stroke:none;-inkscape-stroke:none;fill:#ffffff"
           d="m 600.95508,182.02734 v 73.65625 h 6.95312 v -0.5 -73.15625 z m 1,1 h 4.95312 v 71.65625 h -4.95312 z"
           id="path61094" />
      </g>
      <g
         id="path61029"
         style="fill:#ffffff">
        <path
           style="color:#000000;-inkscape-font-specification:'Futura Lt BT, Normal';stroke:none;-inkscape-stroke:none;fill:#ffffff"
           d="m 623.1582,255.18359 v -72.65625 h 5.76563 v 49.5 l 20.71875,-18.42187 h 7.96875 l -22.26563,18.65625 23.90625,22.92187 h -7.96875 l -22.35937,-21.51562 v 21.51562 z"
           id="path61098" />
        <path
           style="color:#000000;-inkscape-font-specification:'Futura Lt BT, Normal';stroke:none;-inkscape-stroke:none;fill:#ffffff"
           d="m 622.6582,182.02734 v 73.65625 h 0.5 6.26563 v -20.83984 l 21.6582,20.83984 h 9.41406 l -24.40234,-23.39648 22.89258,-19.18164 h -9.53321 l -20.02929,17.80859 v -48.88672 z m 1,1 h 4.76563 v 49.46485 0.64843 21.54297 h -4.76563 z m 26.17383,31.07813 h 6.40625 l -21.64062,18.13086 23.41015,22.44726 h -6.52344 l -22.71093,-21.85351 z"
           id="path61100" />
      </g>
      <g
         id="path61031"
         style="fill:#ffffff">
        <path
           style="color:#000000;-inkscape-font-specification:'Futura Lt BT, Normal';stroke:none;-inkscape-stroke:none;fill:#ffffff"
           d="m 666.04883,197.38672 q 0,-1.82813 1.3125,-3.09375 1.3125,-1.3125 3.14062,-1.3125 1.82813,0 3.14063,1.3125 1.35937,1.26562 1.35937,3.09375 0,1.875 -1.3125,3.14062 -1.26562,1.26563 -3.1875,1.26563 -1.875,0 -3.1875,-1.26563 -1.26562,-1.26562 -1.26562,-3.14062 z m 1.45312,57.79687 v -41.57812 h 5.95313 v 41.57812 z"
           id="path61104" />
        <path
           style="color:#000000;-inkscape-font-specification:'Futura Lt BT, Normal';stroke:none;-inkscape-stroke:none;fill:#ffffff"
           d="m 670.50195,192.48047 c -1.33691,0 -2.53369,0.50204 -3.49023,1.45703 -0.95947,0.92679 -1.46289,2.11232 -1.46289,3.44922 0,1.3625 0.48106,2.5631 1.41211,3.49414 l 0.004,0.004 0.002,0.002 c 0.96063,0.92633 2.17265,1.40625 3.53515,1.40625 1.38944,0 2.6043,-0.47901 3.53711,-1.41016 0.96169,-0.92896 1.46289,-2.13096 1.46289,-3.49609 0,-1.3408 -0.52422,-2.53007 -1.51562,-3.45508 -0.95555,-0.95107 -2.15027,-1.45117 -3.48438,-1.45117 z m 0,1 c 1.0991,0 1.99419,0.37309 2.78711,1.16601 l 0.006,0.006 0.008,0.006 c 0.81838,0.76193 1.19922,1.6337 1.19922,2.72852 0,1.13333 -0.37397,2.02314 -1.16015,2.78125 l -0.002,0.002 -0.004,0.004 c -0.75427,0.75427 -1.66249,1.11914 -2.83399,1.11914 -1.1359,0 -2.04733,-0.36406 -2.83593,-1.12305 -0.75424,-0.75575 -1.11719,-1.64734 -1.11719,-2.7832 0,-1.0991 0.37175,-1.97413 1.16015,-2.73438 l 0.002,-0.002 0.004,-0.004 c 0.79293,-0.79292 1.68803,-1.16601 2.78711,-1.16601 z m -3.5,19.625 v 42.57812 h 0.5 6.45313 v -42.57812 z m 1,1 h 4.95313 v 40.57812 h -4.95313 z"
           id="path61106" />
      </g>
      <g
         id="path61033"
         style="fill:#ffffff">
        <path
           style="color:#000000;-inkscape-font-specification:'Futura Lt BT, Normal';stroke:none;-inkscape-stroke:none;fill:#ffffff"
           d="m 690.42383,218.52734 h -7.64063 v -4.92187 h 7.64063 v -17.0625 h 5.67187 v 17.0625 h 8.34375 v 4.92187 h -8.34375 v 36.65625 h -5.67187 z"
           id="path61110" />
        <path
           style="color:#000000;-inkscape-font-specification:'Futura Lt BT, Normal';stroke:none;-inkscape-stroke:none;fill:#ffffff"
           d="m 689.92383,196.04297 v 17.0625 h -7.64063 v 5.92187 h 7.64063 v 36.65625 h 6.67187 v -36.65625 h 8.34375 v -5.92187 h -8.34375 v -17.0625 z m 1,1 h 4.67187 v 17.0625 h 8.34375 v 3.92187 h -8.34375 v 36.65625 h -4.67187 v -36.65625 h -0.5 -7.14063 v -3.92187 h 7.64063 z"
           id="path61112" />
      </g>
    </g>
  </g>
</svg>
