<?xml version="1.0" encoding="UTF-8" standalone="no"?>
<svg
   width="616"
   height="118"
   version="1.1"
   id="svg157"
   sodipodi:docname="logo main.svg"
   inkscape:version="1.1.1 (3bf5ae0d25, 2021-09-20)"
   xmlns:inkscape="http://www.inkscape.org/namespaces/inkscape"
   xmlns:sodipodi="http://sodipodi.sourceforge.net/DTD/sodipodi-0.dtd"
   xmlns:xlink="http://www.w3.org/1999/xlink"
   xmlns="http://www.w3.org/2000/svg"
   xmlns:svg="http://www.w3.org/2000/svg"
   xmlns:lucid="lucid">
  <defs
     id="defs161">
    <rect
       x="212.62759"
       y="170.24574"
       width="755.69"
       height="156.59735"
       id="rect49851" />
  </defs>
  <sodipodi:namedview
     id="namedview159"
     pagecolor="#ffffff"
     bordercolor="#666666"
     borderopacity="1.0"
     inkscape:pageshadow="2"
     inkscape:pageopacity="0.0"
     inkscape:pagecheckerboard="0"
     showgrid="false"
     inkscape:zoom="1.3921053"
     inkscape:cx="908.69563"
     inkscape:cy="274.04536"
     inkscape:window-width="3440"
     inkscape:window-height="1369"
     inkscape:window-x="1072"
     inkscape:window-y="916"
     inkscape:window-maximized="1"
     inkscape:current-layer="g155" />
  <g
     lucid:page-tab-id="0_0"
     id="g155">
    <path
       d="m 60,6 c 0,-3.3 2.7,-6 6,-6 h 808 c 3.3,0 6,2.7 6,6 v 248 c 0,3.3 -2.7,6 -6,6 H 66 c -3.3,0 -6,-2.7 -6,-6 z"
       stroke="#000000"
       stroke-opacity="0"
       stroke-width="3"
       fill="#ffffff"
       fill-opacity="0"
       id="path4" />
    <path
       d="m 472.42812,27.143455 c 5.34179,0 9.66839,5.438472 9.66839,12.085493 0,6.695353 -4.3266,12.085483 -9.66839,12.085483 h -29.00519 c -5.34178,0 -9.66839,-5.39013 -9.66839,-12.085483 0,-6.647021 4.32661,-12.085493 9.66839,-12.085493 z"
       stroke="#090909"
       stroke-width="2.4171"
       fill="#090909"
       id="path24"
       style="fill:#333333;fill-opacity:1;stroke:#333333;stroke-opacity:1" />
    <path
       d="m 544.94107,2.972468 c 5.34179,0 9.6684,5.438473 9.6684,12.085494 0,6.695363 -4.32661,12.085493 -9.6684,12.085493 h -29.00518 c -5.34179,0 -9.66839,-5.39013 -9.66839,-12.085493 0,-6.647021 4.3266,-12.085494 9.66839,-12.085494 z"
       stroke="#090909"
       stroke-width="2.4171"
       fill="#ef8d22"
       id="path26"
       style="fill:#22efda;fill-opacity:1;stroke:#333333;stroke-width:4.717;stroke-miterlimit:4;stroke-dasharray:none;stroke-opacity:1" />
    <path
       d="m 485.14205,39.228948 h 1.78866 c 3.98821,0 7.25129,-3.226827 7.25129,-7.251296 v -9.668394 c 0,-3.988213 3.23891,-7.251296 7.2513,-7.251296 h 1.81282"
       stroke="#090909"
       stroke-width="3.62565"
       fill="none"
       id="path28"
       style="stroke:#333333;stroke-width:4.717;stroke-miterlimit:4;stroke-dasharray:none;stroke-opacity:1" />
    <path
       d="m 485.16623,41.041772 h -2.09079 l 0.24171,-1.812824 -0.24171,-1.812824 h 2.0787 z m 19.88063,-25.98381 0.24171,1.812824 h -2.10287 v -3.625648 h 2.09079 z"
       fill="#090909"
       id="path30"
       style="fill:#333333;fill-opacity:1;stroke:#333333;stroke-width:0.617;stroke-miterlimit:4;stroke-dasharray:none;stroke-opacity:1" />
    <path
       d="m 593.28305,51.314431 c 5.34177,0 9.66837,5.43847 9.66837,12.08549 0,6.69536 -4.3266,12.08549 -9.66837,12.08549 h -29.00519 c -5.34178,0 -9.66839,-5.39013 -9.66839,-12.08549 0,-6.64702 4.32661,-12.08549 9.66839,-12.08549 z"
       stroke="#090909"
       stroke-width="2.4171"
       fill="#ef8d22"
       id="path32"
       style="stroke:#333333;stroke-width:4.717;stroke-miterlimit:4;stroke-dasharray:none;stroke-opacity:1" />
    <path
       d="m 485.14205,39.228948 h 38.04514 c 3.98821,0 7.25129,3.263083 7.25129,7.251293 v 9.66838 c 0,4.02447 3.23891,7.2513 7.2513,7.2513 h 13.89832"
       stroke="#090909"
       stroke-width="3.62565"
       fill="none"
       id="path34"
       style="stroke:#333333;stroke-width:4.717;stroke-miterlimit:4;stroke-dasharray:none;stroke-opacity:1" />
    <path
       d="m 485.16623,41.041772 h -2.09079 l 0.24171,-1.812824 -0.24171,-1.812824 h 2.0787 z m 68.2226,22.358149 0.24171,1.81282 h -2.10287 v -3.62565 h 2.09079 z"
       fill="#090909"
       id="path36"
       style="fill:#333333;fill-opacity:1;stroke:#333333;stroke-width:1.20855;stroke-opacity:1" />
    <defs
       id="defs153">
      <radialGradient
         gradientUnits="userSpaceOnUse"
         id="a"
         fx="280"
         fy="260"
         cx="280"
         cy="260"
         r="760"
         gradientTransform="translate(346.16068,447.61061)">
        <stop
           offset="27.17%"
           stop-color="#eaedf1"
           id="stop38" />
        <stop
           offset="100%"
           stop-color="#95a0b2"
           id="stop40" />
      </radialGradient>
      <path
         fill="#333333"
         d="m 31,-719 c 23,-3 56,-3 79,0 l 201,651 198,-651 c 23,-3 54,-3 77,0 L 350,0 c -25,3 -59,3 -83,0"
         id="h" />
      <path
         fill="#333333"
         d="M 185,0 C 165,3 139,3 119,0 V -454 H 55 c -3,-16 -3,-40 0,-56 h 130 z m -15,-635 c -25,3 -58,2 -84,0 -2,-26 -3,-59 0,-84 26,-2 59,-3 84,0 3,26 2,58 0,84"
         id="i" />
      <path
         fill="#333333"
         d="M 397,-146 C 397,14 195,38 55,-10 c 4,-20 10,-40 19,-60 98,49 314,17 244,-114 -50,-95 -243,-47 -248,-201 -5,-143 189,-161 314,-115 -3,19 -8,38 -14,57 -79,-35 -278,-39 -224,89 42,57 146,54 200,100 28,24 51,55 51,108"
         id="j" />
      <path
         fill="#333333"
         d="m 128,-255 c 0,119 45,209 159,209 114,0 159,-90 159,-209 0,-119 -45,-209 -159,-209 -114,0 -159,90 -159,209 z m 387,0 C 515,-98 444,12 287,12 130,12 59,-97 59,-255 c 0,-158 71,-267 228,-267 157,0 228,110 228,267"
         id="k" />
      <path
         fill="#333333"
         d="M 154,0 C 134,3 108,3 88,0 v -510 c 19,-3 41,-3 60,0 3,22 4,67 4,92 34,-56 85,-103 174,-104 121,-1 167,78 168,200 V 0 c -20,3 -46,3 -66,0 v -302 c -1,-98 -21,-159 -106,-159 -116,0 -168,88 -168,209 V 0"
         id="l" />
      <g
         id="b">
        <use
           transform="scale(0.1)"
           xlink:href="#h"
           id="use48"
           x="0"
           y="0"
           width="100%"
           height="100%" />
        <use
           transform="matrix(0.1,0,0,0.1,61.7,0)"
           xlink:href="#i"
           id="use50"
           x="0"
           y="0"
           width="100%"
           height="100%" />
        <use
           transform="matrix(0.1,0,0,0.1,89,0)"
           xlink:href="#j"
           id="use52"
           x="0"
           y="0"
           width="100%"
           height="100%" />
        <use
           transform="matrix(0.1,0,0,0.1,134.2,0)"
           xlink:href="#i"
           id="use54"
           x="0"
           y="0"
           width="100%"
           height="100%" />
        <use
           transform="matrix(0.1,0,0,0.1,161.5,0)"
           xlink:href="#k"
           id="use56"
           x="0"
           y="0"
           width="100%"
           height="100%" />
        <use
           transform="matrix(0.1,0,0,0.1,218.9,0)"
           xlink:href="#l"
           id="use58"
           x="0"
           y="0"
           width="100%"
           height="100%" />
      </g>
      <path
         fill="#333333"
         d="M 282,0 C 262,3 233,3 213,0 V -657 H 20 c -3,-18 -3,-43 0,-62 h 455 c 3,18 3,43 0,62 H 282 V 0"
         id="m" />
      <path
         fill="#333333"
         d="M 268,0 C 178,25 88,0 88,-103 v -632 c 20,-3 46,-3 66,0 v 617 c -8,67 46,81 104,66 6,14 8,34 10,52"
         id="n" />
      <path
         fill="#333333"
         d="M 154,0 C 134,3 108,3 88,0 v -735 c 20,-3 46,-3 66,0 z m 42,-263 183,-247 c 23,-4 53,-4 77,0 L 274,-270 489,0 c -26,4 -53,4 -79,0"
         id="o" />
      <path
         fill="#333333"
         d="M 323,0 C 219,30 111,2 111,-119 V -454 H 24 c -3,-16 -3,-40 0,-56 h 87 v -96 l 62,-61 h 4 v 157 h 138 c 3,16 3,40 0,56 H 177 v 332 c -10,78 75,86 136,66 5,17 8,36 10,56"
         id="p" />
      <g
         id="c">
        <use
           transform="scale(0.1)"
           xlink:href="#m"
           id="use65"
           x="0"
           y="0"
           width="100%"
           height="100%" />
        <use
           transform="matrix(0.1,0,0,0.1,49.5,0)"
           xlink:href="#k"
           id="use67"
           x="0"
           y="0"
           width="100%"
           height="100%" />
        <use
           transform="matrix(0.1,0,0,0.1,106.9,0)"
           xlink:href="#k"
           id="use69"
           x="0"
           y="0"
           width="100%"
           height="100%" />
        <use
           transform="matrix(0.1,0,0,0.1,164.3,0)"
           xlink:href="#n"
           id="use71"
           x="0"
           y="0"
           width="100%"
           height="100%" />
        <use
           transform="matrix(0.1,0,0,0.1,192.2,0)"
           xlink:href="#o"
           id="use73"
           x="0"
           y="0"
           width="100%"
           height="100%" />
        <use
           transform="matrix(0.1,0,0,0.1,242.4,0)"
           xlink:href="#i"
           id="use75"
           x="0"
           y="0"
           width="100%"
           height="100%" />
        <use
           transform="matrix(0.1,0,0,0.1,269.7,0)"
           xlink:href="#p"
           id="use77"
           x="0"
           y="0"
           width="100%"
           height="100%" />
      </g>
      <path
         fill="#090909"
         d="m 85,-1421 h 1120 v 150 H 730 V 0 H 560 V -1271 H 85 v -150"
         id="q" />
      <path
         fill="#090909"
         d="m 590,20 c -303,0 -460,-177 -460,-491 0,-284 120,-462 341,-519 147,-38 285,-13 415,43 l -40,120 c -74,-25 -146,-38 -217,-38 -227,3 -340,127 -340,359 0,249 115,388 358,391 63,0 125,-11 188,-33 l 40,113 C 780,2 685,20 590,20"
         id="r" />
      <path
         fill="#090909"
         d="m 352,-243 v -123 h 198 v 355 c 0,0 -143,23 -232,23 -216,0 -278,-127 -278,-359 0,-248 72,-355 273,-355 105,0 237,29 237,29 l -4,119 c 0,0 -120,-13 -211,-13 -118,0 -153,41 -153,220 0,173 25,225 149,225 41,0 83,-4 83,-4 v -117 h -62"
         id="s" />
      <path
         fill="#090909"
         d="m 67,0 v -499 h 134 v 47 c 0,0 60,-44 139,-59 v 144 c -88,17 -139,43 -139,43 V 0 H 67"
         id="t" />
      <path
         fill="#090909"
         d="m 456,-339 v 185 c 0,37 4,47 32,52 L 484,12 C 397,12 374,-1 342,-22 342,-22 258,12 189,12 90,12 40,-52 40,-152 c 0,-155 138,-154 282,-161 5,-43 -11,-69 -50,-70 -74,0 -194,8 -194,8 l -4,-114 c 0,0 133,-22 206,-22 112,0 176,44 176,172 z m -134,128 c -59,8 -147,-14 -147,55 0,35 13,53 41,53 41,0 106,-15 106,-15 v -93"
         id="u" />
      <path
         fill="#090909"
         d="m 67,210 v -709 h 134 v 23 c 0,0 64,-35 113,-35 132,0 197,65 197,257 C 511,-3 393,29 201,4 v 206 z m 221,-598 c -34,0 -87,19 -87,19 v 255 c 0,0 45,5 73,5 80,0 101,-39 101,-145 0,-101 -34,-134 -87,-134"
         id="v" />
      <path
         fill="#090909"
         d="M 201,0 H 67 v -700 h 134 v 215 c 0,0 77,-26 124,-26 140,0 176,88 176,249 V 0 H 367 v -262 c 0,-75 -10,-124 -70,-124 -33,0 -96,12 -96,12 V 0"
         id="w" />
      <g
         id="d">
        <use
           transform="scale(0.02712674)"
           xlink:href="#q"
           id="use87"
           x="0"
           y="0"
           width="100%"
           height="100%" />
        <use
           transform="matrix(0.02712674,0,0,0.02712674,32.823351,0)"
           xlink:href="#r"
           id="use89"
           x="0"
           y="0"
           width="100%"
           height="100%" />
        <use
           transform="matrix(0.05777778,0,0,0.05777778,59.977214,0)"
           xlink:href="#s"
           id="use91"
           x="0"
           y="0"
           width="100%"
           height="100%" />
        <use
           transform="matrix(0.05777778,0,0,0.05777778,94.354991,0)"
           xlink:href="#t"
           id="use93"
           x="0"
           y="0"
           width="100%"
           height="100%" />
        <use
           transform="matrix(0.05777778,0,0,0.05777778,115.15499,0)"
           xlink:href="#u"
           id="use95"
           x="0"
           y="0"
           width="100%"
           height="100%" />
        <use
           transform="matrix(0.05777778,0,0,0.05777778,145.66166,0)"
           xlink:href="#v"
           id="use97"
           x="0"
           y="0"
           width="100%"
           height="100%" />
        <use
           transform="matrix(0.05777778,0,0,0.05777778,177.20832,0)"
           xlink:href="#w"
           id="use99"
           x="0"
           y="0"
           width="100%"
           height="100%" />
      </g>
      <path
         fill="#090909"
         d="m 63,-220 v 92 h 138 v 28 H 63 V 0 H 30 v -248 h 175 v 28 H 63"
         id="x" />
      <path
         fill="#090909"
         d="M 114,-163 C 36,-179 61,-72 57,0 H 25 l -1,-190 h 30 c 1,12 -1,29 2,39 6,-27 23,-49 58,-41 v 29"
         id="y" />
      <path
         fill="#090909"
         d="M 141,-36 C 126,-15 110,5 73,4 37,3 15,-17 15,-53 c -1,-64 63,-63 125,-63 3,-35 -9,-54 -41,-54 -24,1 -41,7 -42,31 l -33,-3 c 5,-37 33,-52 76,-52 45,0 72,20 72,64 v 82 c -1,20 7,32 28,27 V -1 C 169,8 139,-3 141,-36 Z M 48,-53 c 0,20 12,33 32,33 41,-3 63,-29 60,-74 -43,2 -92,-5 -92,41"
         id="z" />
      <path
         fill="#090909"
         d="m 210,-169 c -67,3 -38,105 -44,169 h -31 v -121 c 0,-29 -5,-50 -35,-48 C 34,-165 62,-65 56,0 H 25 l -1,-190 h 30 c 1,10 -1,24 2,32 10,-44 99,-50 107,0 11,-21 27,-35 58,-36 85,-2 47,119 55,194 h -31 v -121 c 0,-29 -5,-49 -35,-48"
         id="A" />
      <path
         fill="#090909"
         d="m 100,-194 c 63,0 86,42 84,106 H 49 c 0,40 14,67 53,68 26,1 43,-12 49,-29 l 28,8 C 168,-13 142,4 102,4 44,4 14,-33 15,-96 c 1,-61 26,-98 85,-98 z m 52,81 c 6,-60 -76,-77 -97,-28 -3,7 -6,17 -6,28 h 103"
         id="B" />
      <path
         fill="#090909"
         d="M 206,0 H 170 L 130,-164 89,0 H 53 L -1,-190 h 32 l 39,164 43,-164 h 34 l 41,164 42,-164 h 31"
         id="C" />
      <path
         fill="#090909"
         d="m 100,-194 c 62,-1 85,37 85,99 1,63 -27,99 -86,99 -59,0 -83,-39 -84,-99 0,-66 28,-99 85,-99 z m -1,174 c 44,1 53,-31 53,-75 0,-43 -8,-75 -51,-75 -43,0 -53,32 -53,75 0,43 10,74 51,75"
         id="D" />
      <path
         fill="#090909"
         d="M 143,0 79,-87 56,-68 V 0 H 24 v -261 h 32 v 163 l 83,-92 h 37 l -77,82 82,108 h -38"
         id="E" />
      <g
         id="e">
        <use
           transform="scale(0.0617284)"
           xlink:href="#x"
           id="use110"
           x="0"
           y="0"
           width="100%"
           height="100%" />
        <use
           transform="matrix(0.0617284,0,0,0.0617284,13.518519,0)"
           xlink:href="#y"
           id="use112"
           x="0"
           y="0"
           width="100%"
           height="100%" />
        <use
           transform="matrix(0.0617284,0,0,0.0617284,20.864198,0)"
           xlink:href="#z"
           id="use114"
           x="0"
           y="0"
           width="100%"
           height="100%" />
        <use
           transform="matrix(0.0617284,0,0,0.0617284,33.209877,0)"
           xlink:href="#A"
           id="use116"
           x="0"
           y="0"
           width="100%"
           height="100%" />
        <use
           transform="matrix(0.0617284,0,0,0.0617284,51.666667,0)"
           xlink:href="#B"
           id="use118"
           x="0"
           y="0"
           width="100%"
           height="100%" />
        <use
           transform="matrix(0.0617284,0,0,0.0617284,64.012346,0)"
           xlink:href="#C"
           id="use120"
           x="0"
           y="0"
           width="100%"
           height="100%" />
        <use
           transform="matrix(0.0617284,0,0,0.0617284,80,0)"
           xlink:href="#D"
           id="use122"
           x="0"
           y="0"
           width="100%"
           height="100%" />
        <use
           transform="matrix(0.0617284,0,0,0.0617284,92.345679,0)"
           xlink:href="#y"
           id="use124"
           x="0"
           y="0"
           width="100%"
           height="100%" />
        <use
           transform="matrix(0.0617284,0,0,0.0617284,99.691358,0)"
           xlink:href="#E"
           id="use126"
           x="0"
           y="0"
           width="100%"
           height="100%" />
      </g>
      <path
         fill="#090909"
         d="m 30,-248 c 87,1 191,-15 191,75 0,78 -77,80 -158,76 V 0 H 30 Z m 33,125 c 57,0 124,11 124,-50 0,-59 -68,-47 -124,-48 v 98"
         id="F" />
      <path
         fill="#090909"
         d="m 85,-194 c 31,0 48,13 60,33 l -1,-100 h 32 l 1,261 h -30 c -2,-10 0,-23 -3,-31 C 134,-8 116,4 85,4 32,4 16,-35 15,-94 c 0,-66 23,-100 70,-100 z m 9,24 c -40,0 -46,34 -46,75 0,40 6,74 45,74 42,0 51,-32 51,-76 0,-42 -9,-74 -50,-73"
         id="G" />
      <g
         id="f">
        <use
           transform="scale(0.0308642)"
           xlink:href="#F"
           id="use131"
           x="0"
           y="0"
           width="100%"
           height="100%" />
        <use
           transform="matrix(0.0308642,0,0,0.0308642,7.4074074,0)"
           xlink:href="#D"
           id="use133"
           x="0"
           y="0"
           width="100%"
           height="100%" />
        <use
           transform="matrix(0.0308642,0,0,0.0308642,13.580247,0)"
           xlink:href="#C"
           id="use135"
           x="0"
           y="0"
           width="100%"
           height="100%" />
        <use
           transform="matrix(0.0308642,0,0,0.0308642,21.574074,0)"
           xlink:href="#B"
           id="use137"
           x="0"
           y="0"
           width="100%"
           height="100%" />
        <use
           transform="matrix(0.0308642,0,0,0.0308642,27.746914,0)"
           xlink:href="#y"
           id="use139"
           x="0"
           y="0"
           width="100%"
           height="100%" />
        <use
           transform="matrix(0.0308642,0,0,0.0308642,31.419753,0)"
           xlink:href="#B"
           id="use141"
           x="0"
           y="0"
           width="100%"
           height="100%" />
        <use
           transform="matrix(0.0308642,0,0,0.0308642,37.592593,0)"
           xlink:href="#G"
           id="use143"
           x="0"
           y="0"
           width="100%"
           height="100%" />
      </g>
      <path
         fill="#090909"
         d="m 115,-194 c 53,0 69,39 70,98 C 185,-30 162,4 115,4 84,3 66,-7 56,-30 L 54,0 H 23 l 1,-261 h 32 v 101 c 10,-23 28,-34 59,-34 z m -8,174 c 40,0 45,-34 45,-75 0,-40 -5,-75 -45,-74 -42,0 -51,32 -51,76 0,43 10,73 51,73"
         id="H" />
      <path
         fill="#090909"
         d="M 179,-190 93,31 C 79,59 56,82 12,73 V 49 C 51,55 65,29 76,-1 L 1,-190 h 34 l 57,156 54,-156 h 33"
         id="I" />
      <g
         id="g">
        <use
           transform="scale(0.0308642)"
           xlink:href="#H"
           id="use148"
           x="0"
           y="0"
           width="100%"
           height="100%" />
        <use
           transform="matrix(0.0308642,0,0,0.0308642,6.1728395,0)"
           xlink:href="#I"
           id="use150"
           x="0"
           y="0"
           width="100%"
           height="100%" />
      </g>
    </defs>
    <text
       xml:space="preserve"
       id="text49849"
       style="font-style:normal;font-weight:normal;font-size:40px;line-height:1.25;font-family:sans-serif;white-space:pre;shape-inside:url(#rect49851);fill:#333333;fill-opacity:1;stroke:#333333;stroke-opacity:1"
       transform="translate(-201.13416,-150.13236)"><tspan
         x="212.62695"
         y="255.18359"
         id="tspan1003"><tspan
           style="font-size:96px;font-family:'Futura Lt BT';-inkscape-font-specification:'Futura Lt BT, Normal'"
           id="tspan1001">VisionToolkit</tspan></tspan></text>
  </g>
</svg>
